HIERARCHY
ROOT Hips
{
	OFFSET 0.000000 0.000000 0.000000
	CHANNELS 6 Xposition Yposition Zposition Xrotation Yrotation Zrotation
	JOINT LeftUpLeg_virtual
	{
		OFFSET 0.000000 0.000000 0.000000
		CHANNELS 3 Xrotation Yrotation Zrotation
		JOINT LeftUpLeg
		{
			OFFSET 13.026900 -6.336304 -1.092800
			CHANNELS 3 Xrotation Yrotation Zrotation
			JOINT LeftLeg
			{
				OFFSET 0.524474 -46.096886 9.782700
				CHANNELS 3 Xrotation Yrotation Zrotation
				JOINT LeftFoot
				{
					OFFSET -0.524474 -53.427422 -12.948200
					CHANNELS 3 Xrotation Yrotation Zrotation
					JOINT LeftToeBase
					{
						OFFSET 0.192200 -14.009700 16.364100
						CHANNELS 3 Xrotation Yrotation Zrotation
						JOINT LeftToe_End
						{
							OFFSET -1.784700 -0.561700 9.474800
							CHANNELS 3 Xrotation Yrotation Zrotation
							End Site
							{
								OFFSET 0 0 0
							}
						}
					}
				}
			}
		}
	}
	JOINT RightUpLeg_virtual
	{
		OFFSET 0.000000 0.000000 0.000000
		CHANNELS 3 Xrotation Yrotation Zrotation
		JOINT RightUpLeg
		{
			OFFSET -12.883000 -6.336304 -1.092800
			CHANNELS 3 Xrotation Yrotation Zrotation
			JOINT RightLeg
			{
				OFFSET -0.524587 -46.096825 9.782800
				CHANNELS 3 Xrotation Yrotation Zrotation
				JOINT RightFoot
				{
					OFFSET 0.524587 -53.427383 -12.948300
					CHANNELS 3 Xrotation Yrotation Zrotation
					JOINT RightToeBase
					{
						OFFSET -0.192200 -14.009700 16.364100
						CHANNELS 3 Xrotation Yrotation Zrotation
						JOINT RightToe_End
						{
							OFFSET 1.784700 -0.561700 9.474800
							CHANNELS 3 Xrotation Yrotation Zrotation
							End Site
							{
								OFFSET 0 0 0
							}
						}
					}
				}
			}
		}
	}
	JOINT Spine_virtual
	{
		OFFSET 0.000000 0.000000 0.000000
		CHANNELS 3 Xrotation Yrotation Zrotation
		JOINT Spine
		{
			OFFSET 0.072000 7.257294 -0.789700
			CHANNELS 3 Xrotation Yrotation Zrotation
			JOINT Spine1
			{
				OFFSET 0.000000 12.508769 -0.658067
				CHANNELS 3 Xrotation Yrotation Zrotation
				JOINT Spine1_split
				{
					OFFSET 0.000000 12.508769 -0.658067
					CHANNELS 3 Xrotation Yrotation Zrotation
					JOINT Spine2
					{
						OFFSET 0.000000 12.508769 -0.658067
						CHANNELS 3 Xrotation Yrotation Zrotation
						JOINT Neck_virtual
						{
							OFFSET 0.000000 0.000000 0.000000
							CHANNELS 3 Xrotation Yrotation Zrotation
							JOINT Neck
							{
								OFFSET 0.000000 14.033295 7.520400
								CHANNELS 3 Xrotation Yrotation Zrotation
								JOINT Head
								{
									OFFSET 0.000000 8.198502 5.703100
									CHANNELS 3 Xrotation Yrotation Zrotation
									JOINT HeadTop_End
									{
										OFFSET 0.000000 17.760803 13.332701
										CHANNELS 3 Xrotation Yrotation Zrotation
										End Site
										{
											OFFSET 0 0 0
										}
									}
								}
							}
						}
						JOINT LeftShoulder_virtual
						{
							OFFSET 0.000000 0.000000 0.000000
							CHANNELS 3 Xrotation Yrotation Zrotation
							JOINT LeftShoulder
							{
								OFFSET 6.292450 5.785301 -0.669000
								CHANNELS 3 Xrotation Yrotation Zrotation
								JOINT LeftShoulder_split
								{
									OFFSET 6.292450 5.785301 -0.669000
									CHANNELS 3 Xrotation Yrotation Zrotation
									JOINT LeftArm
									{
										OFFSET 13.907140 -6.093903 1.965100
										CHANNELS 3 Xrotation Yrotation Zrotation
										JOINT LeftForeArm
										{
											OFFSET 34.140198 0.000000 0.000000
											CHANNELS 3 Xrotation Yrotation Zrotation
											JOINT LeftHand
											{
												OFFSET 40.960209 0.000000 0.000000
												CHANNELS 3 Xrotation Yrotation Zrotation
												End Site
												{
													OFFSET 0 0 0
												}
											}
										}
									}
								}
							}
						}
						JOINT RightShoulder_virtual
						{
							OFFSET 0.000000 0.000000 0.000000
							CHANNELS 3 Xrotation Yrotation Zrotation
							JOINT RightShoulder
							{
								OFFSET -6.292450 5.785301 -0.669000
								CHANNELS 3 Xrotation Yrotation Zrotation
								JOINT RightShoulder_split
								{
									OFFSET -6.292450 5.785301 -0.669000
									CHANNELS 3 Xrotation Yrotation Zrotation
									JOINT RightArm
									{
										OFFSET -13.907140 -6.093903 1.965100
										CHANNELS 3 Xrotation Yrotation Zrotation
										JOINT RightForeArm
										{
											OFFSET -34.140198 0.000000 0.000000
											CHANNELS 3 Xrotation Yrotation Zrotation
											JOINT RightHand
											{
												OFFSET -40.960209 0.000000 0.000000
												CHANNELS 3 Xrotation Yrotation Zrotation
												End Site
												{
													OFFSET 0 0 0
												}
											}
										}
									}
								}
							}
						}
					}
				}
			}
		}
	}
}
MOTION
Frames: 4
Frame Time: 0.03333333
3.695231 106.073380 3.848583 0.000000 0.000000 0.000000 0.331348 -48.101399 -2.673970 -33.404608 1.621564 12.402158 36.125625 -14.791386 3.694130 -2.707570 -5.587477 -5.566617 -8.868467 -3.630603 2.011868 0.000000 0.000000 0.000000 -0.973224 -45.843762 -2.411058 -0.075435 -0.230514 -12.258936 19.831948 -9.362768 -2.531137 -18.978300 -0.811111 26.873355 -5.704238 1.341039 0.670486 0.000000 0.000000 0.000000 -4.054651 -47.251146 -4.207656 11.286171 7.494312 0.779840 10.939832 9.891152 -3.859693 -1.061375 2.039589 0.699228 0.000000 0.000000 0.000000 12.075995 9.618667 -4.594814 -17.189209 -3.246053 3.045176 2.677632 23.444517 -5.719556 0.000000 0.000000 0.000000 13.463712 8.953312 -3.399095 0.409895 -2.893081 -10.392041 0.599125 1.456212 2.845522 -10.997902 -5.817012 -57.653176 8.942703 -58.696849 -0.352971 0.000000 0.000000 0.000000 10.424966 9.883277 -2.937106 1.026789 16.983617 6.366825 3.735048 0.485113 2.362000 -18.584596 -21.564695 68.733724 3.766953 48.388817 -2.862713 0.000000 0.000000 0.000000 
4.932631 105.882942 2.660313 0.000000 0.000000 0.000000 2.143015 -49.680747 -1.344008 -35.465655 0.302955 12.878094 35.705371 -13.701564 3.122256 -2.464145 -4.724964 -4.358216 -7.238992 -3.340434 1.594337 0.000000 0.000000 0.000000 0.312249 -46.703317 -1.526182 -0.907199 -0.857136 -13.098423 21.710497 -8.411532 -2.368123 -18.752996 -0.410676 27.170293 -4.350415 1.055585 0.800714 0.000000 0.000000 0.000000 -2.132260 -48.234437 -2.899495 11.360235 7.784621 0.822692 11.236256 9.682515 -3.848569 -0.242852 0.770566 1.397107 0.000000 0.000000 0.000000 12.418457 9.466823 -4.634331 -17.146983 -1.992915 3.459240 2.246626 24.682938 -6.155031 0.000000 0.000000 0.000000 13.605415 8.733681 -3.629381 0.099636 -4.115826 -9.157917 -0.888696 -1.422133 0.172818 -11.681305 -4.668277 -57.187084 6.417821 -52.408199 -1.629810 0.000000 0.000000 0.000000 10.448475 9.752120 -3.064119 0.605284 16.879810 6.629202 5.075339 0.582115 2.238850 -16.101628 -21.520171 68.740308 3.306923 50.941409 -2.626517 0.000000 0.000000 0.000000 
6.671234 103.787613 0.404366 0.000000 0.000000 0.000000 4.956883 -50.975768 1.643180 -42.006025 -1.605661 13.104305 38.241553 -11.677949 2.496779 -0.844190 -2.458815 -4.559937 -2.164177 -2.738689 0.504172 0.000000 0.000000 0.000000 2.916420 -47.350635 0.984322 -6.210570 -0.755285 -14.667879 27.371432 -8.021114 -1.965133 -18.384579 -0.461666 26.449827 -2.802237 0.567041 0.894074 0.000000 0.000000 0.000000 1.379479 -49.098654 0.346342 11.524739 7.978976 0.530596 11.823313 9.207597 -3.891686 0.005489 -0.507619 0.945654 0.000000 0.000000 0.000000 13.218474 8.929937 -4.772804 -18.656839 -0.830650 4.561288 0.995150 27.026394 -6.911767 0.000000 0.000000 0.000000 13.927012 8.239991 -3.921057 -0.370825 -5.797267 -7.280813 -2.543139 -4.732337 -2.912218 -12.918875 -7.753831 -55.126303 7.667729 -44.887061 0.063869 0.000000 0.000000 0.000000 10.937648 9.287024 -3.302408 -0.193840 16.640113 7.192514 5.531841 1.491766 2.224136 -13.520928 -19.678707 67.214696 2.036197 53.115963 -1.640616 0.000000 0.000000 0.000000 
8.546691 100.106049 -2.403839 0.000000 0.000000 0.000000 9.035250 -51.492407 6.229718 -51.069546 -3.829851 11.995563 42.951419 -9.368872 2.092980 1.678140 0.372714 -6.728199 1.759052 -2.175326 -0.343229 0.000000 0.000000 0.000000 6.874944 -48.104954 5.235826 -15.556680 0.123672 -16.957896 36.333786 -8.253271 -1.386837 -18.519641 -0.707368 24.536797 -1.037674 -0.074463 0.752017 0.000000 0.000000 0.000000 6.440216 -49.446752 5.493732 11.529685 7.948574 -0.092503 12.557883 8.451458 -3.930691 -0.819271 -1.851579 0.444700 0.000000 0.000000 0.000000 14.233572 8.128584 -4.911630 -21.522379 0.190647 6.028566 -0.429408 30.065038 -7.834387 0.000000 0.000000 0.000000 14.356035 7.522614 -4.124255 -0.903149 -7.333298 -5.574143 -3.168197 -6.654720 -5.603260 -15.359098 -13.308700 -52.142914 10.278310 -38.341694 2.544115 0.000000 0.000000 0.000000 11.822633 8.489520 -3.584496 -1.186060 16.490846 8.212246 4.895890 3.272068 2.484159 -11.230897 -16.251347 64.292175 0.080976 54.113762 0.166105 0.000000 0.000000 0.000000 
